<?xml version="1.0" encoding="UTF-8" standalone="no"?>
<!-- Created with Inkscape (http://www.inkscape.org/) -->

<svg
   width="102.63516mm"
   height="39.774044mm"
   viewBox="0 0 102.63516 39.774044"
   version="1.1"
   id="svg5"
   xml:space="preserve"
   xmlns="http://www.w3.org/2000/svg"
   xmlns:svg="http://www.w3.org/2000/svg"><defs
     id="defs2" /><g
     id="layer5"
     style="display:inline"
     transform="translate(-73.982485,-60.471636)"><g
       id="g135"
       transform="matrix(0.2306666,0,0,0.2306666,103.2525,75.864803)"><g
         id="g325"
         transform="matrix(2.4361107,0,0,2.4361107,-176.58473,-103.75936)"
         style="fill:#ee8800;fill-opacity:1"><path
           d="M 80.355,22.816 C 78.2612,18.6402 74.562,15.1988 66.8,15.1988 c -8.3398,0 -14.543,6.9805 -14.543,14.457 0,3.5703 0.98047,4.3711 0.98047,4.3711 0,0 7.6406,-12.379 19.891,-12.09 0,0 -8.6172,1.832 -14.188,9.2852 -5.082,6.8047 -1.9844,9.1289 4.8438,7.2383 7.9414,-2.1953 8.207,-9 10.598,-12.355 1.3906,-1.9531 3.8555,-3.4141 5.8672,-3.2695 0.03906,-0.0039 0.07422,-0.0039 0.11328,-0.0039 -0.0039,-0.0078 -0.0078,-0.01172 -0.0078,-0.01563 z"
           id="path319"
           style="display:inline;fill:#ee8800;fill-opacity:1" /><path
           d="M 45.977,34.676 C 42.77,31.8362 39.4379,29.1057 35.68,27.1408 c 6.4023,1.7109 14.605,8.8047 14.605,8.8047 0.09766,-6.2617 -1.1797,-11.25 -6.5859,-14.258 -5.1758,-2.875 -10.316,-3.1211 -16.309,-3.3438 -4.1289,-0.15234 -6.9922,-1.5039 -6.9922,-1.5039 0.97266,4.8711 2.6328,15.211 9.5312,20.387 7.2031,5.4023 16.301,3.0352 17.414,2.7188 3.3008,3.2031 4.8711,7.1875 5.3867,11.754 h -19.711 l 1.2539,6.5469 h 40.438 l 1.2539,-6.5469 h -18.898 c -1.1562,-6.7812 -5.8359,-12.375 -11.09,-17.023 z"
           id="path321"
           style="fill:#ee8800;fill-opacity:1" /><path
           d="M 41.078,85.98 H 67.91 l 3.7891,-25.055 h -34.414 z"
           id="path323"
           style="fill:#ee8800;fill-opacity:1" /></g></g></g><g
     id="layer1"
     style="display:inline"
     transform="translate(-73.982485,-60.471636)"><path
       d="m 20.7,20 0.24,-14.5 2.38,-0.18 1.08,0.12 1.02,6.94 0.6,-7.16 4.1,0.5 c 0.02,0.76 0.04,1.54 0.04,2.36 0.08,1.38 0.18,3.18 0.18,4.84 0.06,2.68 -0.02,4.6 0.16,7.12 L 28.74,20 28.6,11.02 l -0.38,-0.08 -1,7.96 -0.34,0.98 -2.12,0.12 -1.02,-8.4 -0.6,0.14 0.22,8.38 z m 12.9,-6.62 2,-0.1 L 35.54,10.5 35.04,8.56 33.8,8.46 Z M 34.14,5.2 h 1.28 l 2.62,0.18 0.54,7.26 0.2,7.24 -0.6,0.04 -2.26,0.1 h -0.24 l -0.18,-4.5 -1.88,-0.12 -0.5,4.6 -1.96,0.06 0.64,-7.48 0.58,-4.28 0.42,-3 z m 12.8,10.88 v 4 L 40.6,20.2 h -0.68 l -0.3,-1.8 v -0.56 l 4.56,-10.98 -4.14,0.38 0.04,-2.02 4.22,-0.06 3,0.16 0.12,0.72 -0.26,1.48 -3.96,9.22 z m 1.32,3.84 -0.04,-6.94 0.08,-0.74 -0.04,-0.74 0.1,-4.42 0.18,-1.72 6.5,0.12 0.1,3.9 h -4.26 l -0.08,2.5 3.26,-0.06 v 0.22 l 0.1,1.7 -3.04,0.06 0.1,2.96 4.06,0.2 v 3.08 z M 55.72,5.36 59.78,5.24 61.9,5.32 62.5,5.36 62.28,8.26 60.68,8.16 60.8,20 57.26,20.04 57.44,13 57.52,8.12 55.58,7.94 Z m 9.38,8.02 2,-0.1 L 67.04,10.5 66.54,8.56 65.3,8.46 Z M 65.64,5.2 h 1.28 l 2.62,0.18 0.54,7.26 0.2,7.24 -0.6,0.04 -2.26,0.1 H 67.18 L 67,15.52 65.12,15.4 64.62,20 62.66,20.06 63.3,12.58 63.88,8.3 64.3,5.3 Z"
       id="path124"
       style="display:inline;fill:#aa3300;fill-opacity:1"
       transform="matrix(1.3490509,0,0,1.3490509,81.806344,72.651213)" /></g><g
     id="layer4"
     style="display:inline"
     transform="translate(-73.982485,-60.471636)"><path
       d="M 112.78065,66.855644 V 76.3797 l 1.17099,0.218588 1.13976,0.03123 -0.10929,1.764287 h -0.88995 l -2.96651,0.109292 -0.98364,-0.03123 -0.20297,-10.367164 0.0937,-1.12415 z m 4.34047,6.385803 1.56132,-0.07806 -0.0468,-2.170236 -0.39033,-1.514485 -0.96802,-0.07806 z m 0.42156,-6.385803 h 0.99924 l 2.04533,0.140519 0.42155,5.667597 0.15614,5.651979 -0.4684,0.03123 -1.76429,0.07807 h -0.18736 l -0.14052,-3.512966 -1.46764,-0.09368 -0.39033,3.591039 -1.53009,0.04684 0.49962,-5.839339 0.45278,-3.341228 0.32788,-2.341978 z"
       style="display:inline;fill:#aa3300;fill-opacity:1;stroke-width:0.428949"
       id="path2949" /></g></svg>
